<svg xmlns="http://www.w3.org/2000/svg" width="125.44277" height="174.85043" viewBox="0 0 125.44277 174.85043"><defs><radialGradient id="a" cx="53.705" cy="96.216" r="73.76" gradientUnits="userSpaceOnUse"><stop stop-color="#009821"/><stop offset="1" stop-color="#00e031"/></radialGradient><radialGradient id="b" cx="54.253" cy="95.996" r="33.271" gradientUnits="userSpaceOnUse"><stop stop-color="#5a3800"/><stop offset="1" stop-color="#4c1900"/></radialGradient></defs><path d="M125.171 97.458c0 42.743-28.02 77.393-62.585 77.393S0 140.2 0 97.458 27.441 0 62.006 0c6.72 0 13.214 2.068 19.317 5.714 25.287 15.108 43.848 57.31 43.848 91.744z" fill="#005212"/><path d="M106.494 96.216c0 40.737-23.634 73.76-52.789 73.76S.916 136.953.916 96.216 24.55 7.27 53.705 7.27s52.789 48.21 52.789 88.946z" fill="url(#a)"/><path d="M74.919 23.284c5.604 9.723 26.667 43.673 19.195 47.98-4.233 2.44-26.598-11.282-37.963-27.684-8.698-12.553-8.148-28.235-4.909-30.102 7.472-4.307 18.073.084 23.677 9.806z" fill="#00dd30"/><path d="M81.746 95.996c0 18.375-12.309 33.271-27.493 33.271-3.453 0-6.757-.77-9.802-2.177-10.343-4.778-17.69-16.898-17.69-31.094 0-18.376 12.308-33.272 27.492-33.272s27.493 14.896 27.493 33.272z" fill="url(#b)"/><path d="M93.676 144.013s-12.725 20.677-30.971 25.775c-2.649.74-15.426 2.498-25.983-2.43-10.128-4.727-18.022-16.013-21.795-21.489C3.14 128.762.859 111.254.859 97.305c0-12.609 18.925 28.136 45.045 37.504 21.666 7.77 47.772 9.204 47.772 9.204z" fill="#00bc29"/><path d="M124.023 110.896c-.921 3.783-2.994 6.527-4.63 6.128-1.636-.398-2.215-3.788-1.294-7.57.922-3.783 2.995-6.527 4.63-6.128 1.636.398 2.216 3.788 1.294 7.57z" fill="#006c17"/></svg>