<svg version="1.1" xmlns="http://www.w3.org/2000/svg" xmlns:xlink="http://www.w3.org/1999/xlink" width="252.3713" height="242.59828" viewBox="0,0,252.3713,242.59828"><defs><radialGradient cx="205.42367" cy="284.86154" r="91.5884" gradientUnits="userSpaceOnUse" id="color-1"><stop offset="0" stop-color="#c64f4f"/><stop offset="1" stop-color="#ec5f5f"/></radialGradient><radialGradient cx="207.59257" cy="226.40886" r="107.09432" gradientUnits="userSpaceOnUse" id="color-2"><stop offset="0" stop-color="#ff6666"/><stop offset="1" stop-color="#ec5f5f"/></radialGradient><linearGradient x1="146.52539" y1="153.45939" x2="146.52539" y2="218.22654" gradientUnits="userSpaceOnUse" id="color-3"><stop offset="0" stop-color="#494949"/><stop offset="1" stop-color="#464646"/></linearGradient><linearGradient x1="213.62513" y1="174.63504" x2="221.59454" y2="184.10877" gradientUnits="userSpaceOnUse" id="color-4"><stop offset="0" stop-color="#747474"/><stop offset="1" stop-color="#858585"/></linearGradient><linearGradient x1="235.56611" y1="217.52154" x2="241.02624" y2="224.01234" gradientUnits="userSpaceOnUse" id="color-5"><stop offset="0" stop-color="#666666"/><stop offset="1" stop-color="#989898"/></linearGradient><linearGradient x1="209.28578" y1="185.69594" x2="236.62265" y2="218.19298" gradientUnits="userSpaceOnUse" id="color-6"><stop offset="0" stop-color="#303030"/><stop offset="1" stop-color="#202020"/></linearGradient><linearGradient x1="197.38779" y1="187.85086" x2="205.3572" y2="197.3246" gradientUnits="userSpaceOnUse" id="color-7"><stop offset="0" stop-color="#747474"/><stop offset="1" stop-color="#858585"/></linearGradient><linearGradient x1="200.09152" y1="174.81201" x2="205.81078" y2="181.61085" gradientUnits="userSpaceOnUse" id="color-8"><stop offset="0" stop-color="#666666"/><stop offset="1" stop-color="#757575"/></linearGradient><linearGradient x1="213.30652" y1="190.2564" x2="234.04233" y2="214.90635" gradientUnits="userSpaceOnUse" id="color-9"><stop offset="0" stop-color="#7f7f7f"/><stop offset="1" stop-color="#8a8a8a"/></linearGradient><linearGradient x1="194.69691" y1="166.88339" x2="194.69691" y2="124.04146" gradientUnits="userSpaceOnUse" id="color-10"><stop offset="0" stop-color="#424242"/><stop offset="1" stop-color="#636363"/></linearGradient><linearGradient x1="205.42933" y1="181.00083" x2="214.04516" y2="191.243" gradientUnits="userSpaceOnUse" id="color-11"><stop offset="0" stop-color="#757575"/><stop offset="1" stop-color="#949494"/></linearGradient><linearGradient x1="214.27071" y1="169.01148" x2="214.27071" y2="175.95733" gradientUnits="userSpaceOnUse" id="color-12"><stop offset="0" stop-color="#6f6f6f"/><stop offset="1" stop-color="#777777"/></linearGradient><linearGradient x1="161.76176" y1="161.95059" x2="161.76176" y2="187.30746" gradientUnits="userSpaceOnUse" id="color-13"><stop offset="0" stop-color="#6e6e6e"/><stop offset="1" stop-color="#969696"/></linearGradient><linearGradient x1="208.30236" y1="58.02673" x2="208.30236" y2="202.1377" gradientUnits="userSpaceOnUse" id="color-14"><stop offset="0" stop-color="#ff6666"/><stop offset="1" stop-color="#e65c5e"/></linearGradient><linearGradient x1="206.46045" y1="52.4741" x2="206.46045" y2="66.78128" gradientUnits="userSpaceOnUse" id="color-15"><stop offset="0" stop-color="#e25a5a"/><stop offset="1" stop-color="#cb515e"/></linearGradient><linearGradient x1="212.92658" y1="93.31882" x2="212.92658" y2="172.69338" gradientUnits="userSpaceOnUse" id="color-16"><stop offset="0" stop-color="#ffffff"/><stop offset="1" stop-color="#d2d2d2"/></linearGradient></defs><g transform="translate(-82.11671,-52.4741)"><g data-paper-data="{&quot;isPaintingLayer&quot;:true}" fill-rule="nonzero" stroke-linejoin="miter" stroke-miterlimit="10" stroke-dasharray="" stroke-dashoffset="0" style="mix-blend-mode: normal"><path d="M103.38559,252.50532l215.14053,-8.60562c0,0 -2.6397,45.99418 -28.57823,50.97155c-11.42549,2.19245 -47.96321,-14.24599 -84.99759,-14.9941c-32.42256,-0.65495 -65.88398,14.66504 -74.44871,12.47972c-21.5949,-5.51 -27.116,-39.85155 -27.116,-39.85155z" fill="url(#color-1)" stroke="none" stroke-width="0" stroke-linecap="butt"/><path d="M92.26022,166.92959l227.91868,-3.18975c0,0 18.84137,85.45039 -27.43977,119.25231c-18.28307,13.35323 -48.96659,-9.98061 -80.99902,-10.76928c-39.13657,-0.96358 -79.2719,18.3673 -88.61882,12.8977c-34.97979,-20.46933 -30.86106,-118.19097 -30.86106,-118.19097z" fill="url(#color-2)" stroke="#df5959" stroke-width="0" stroke-linecap="butt"/><path d="" fill="#3a3a3a" stroke="none" stroke-width="0" stroke-linecap="butt"/><path d="" fill="url(#color-3)" stroke="none" stroke-width="0" stroke-linecap="butt"/><path d="" data-paper-data="{&quot;index&quot;:null}" fill="url(#color-4)" stroke="none" stroke-width="0" stroke-linecap="butt"/><path d="" data-paper-data="{&quot;index&quot;:null}" fill="url(#color-5)" stroke="none" stroke-width="0" stroke-linecap="butt"/><path d="" fill="url(#color-6)" stroke="none" stroke-width="0" stroke-linecap="butt"/><path d="" fill="#666666" stroke="none" stroke-width="0" stroke-linecap="butt"/><path d="" data-paper-data="{&quot;index&quot;:null}" fill="url(#color-7)" stroke="none" stroke-width="0" stroke-linecap="butt"/><path d="" fill="url(#color-8)" stroke="none" stroke-width="0" stroke-linecap="butt"/><path d="" fill="none" stroke="#202020" stroke-width="1.5" stroke-linecap="round"/><path d="" fill="none" stroke="#202020" stroke-width="1.5" stroke-linecap="round"/><path d="" fill="none" stroke="url(#color-9)" stroke-width="2.5" stroke-linecap="butt"/><path d="" fill="none" stroke="#ffffff" stroke-width="1" stroke-linecap="butt"/><g fill="none" stroke="#ffffff" stroke-width="0.5"><path d="" stroke-linecap="round"/><path d="" stroke-linecap="butt"/></g><path d="" fill="none" stroke="#ffffff" stroke-width="1" stroke-linecap="round"/><path d="" fill="none" stroke="#ffffff" stroke-width="1" stroke-linecap="butt"/><g fill="none" stroke="#ffffff" stroke-width="0.5"><path d="" stroke-linecap="round"/><path d="" stroke-linecap="butt"/></g><path d="" fill="none" stroke="#ffffff" stroke-width="1" stroke-linecap="round"/><path d="" fill="#ffffff" stroke="#ffffff" stroke-width="0" stroke-linecap="butt"/><path d="" fill="#ffffff" stroke="#ffffff" stroke-width="0.5" stroke-linecap="round"/><path d="" fill="#ffffff" stroke="#ffffff" stroke-width="0.5" stroke-linecap="round"/><path d="" data-paper-data="{&quot;index&quot;:null}" fill="#ffffff" stroke="#ffffff" stroke-width="0.5" stroke-linecap="round"/><path d="" fill="none" stroke="#3a3a3a" stroke-width="7" stroke-linecap="butt"/><path d="" data-paper-data="{&quot;index&quot;:null}" fill="none" stroke="url(#color-10)" stroke-width="7" stroke-linecap="butt"/><path d="" fill="#3a3a3a" stroke="none" stroke-width="0" stroke-linecap="butt"/><path d="" fill="url(#color-11)" stroke="none" stroke-width="0" stroke-linecap="butt"/><path d="" fill="url(#color-12)" stroke="#707070" stroke-width="0" stroke-linecap="round"/><path d="" fill="#3a3a3a" stroke="none" stroke-width="0" stroke-linecap="butt"/><path d="" fill="url(#color-13)" stroke="none" stroke-width="0" stroke-linecap="butt"/><path d="" fill="#ececec" stroke="none" stroke-width="7" stroke-linecap="butt"/><path d="" fill="#ececec" stroke="none" stroke-width="0" stroke-linecap="butt"/><path d="M334.39202,191.58569c0,3.43168 1.79013,11.06152 -10.0908,10.52513c-12.47358,-0.56315 -66.52317,-6.67251 -119.48232,-6.87515c-49.0299,-0.1876 -97.21299,5.478 -108.48753,6.24077c-15.12113,1.02301 -14.20392,-7.49003 -14.20392,-11.26376c0,-3.96564 3.23215,-8.63003 4.04884,-13.78818c5.62665,-35.53765 27.54992,-94.5124 67.71386,-109.88705c6.09128,-2.33172 28.63435,-8.28576 50.94317,-8.50341c24.49207,-0.23895 48.84271,5.4496 54.16169,7.12071c42.27529,13.28204 65.15251,73.85358 71.19594,111.2406c0.91834,5.68122 4.20107,10.82709 4.20107,15.19033z" fill="url(#color-14)" stroke="none" stroke-width="0" stroke-linecap="butt"/><path d="M203.95995,63.53304v133.06265" fill="none" stroke="#e25a5a" stroke-width="1.5" stroke-linecap="round"/><path d="M221.33921,59.02025c0,0 25.60054,7.91186 38.36198,18.10136c10.42504,8.32398 19.47352,20.10002 24.8069,28.54547c10.2436,16.22082 14.63419,38.45933 15.07532,41.95692c1.61793,12.82785 6.55151,51.94415 6.55151,51.94415" data-paper-data="{&quot;index&quot;:null}" fill="none" stroke="#e25a5a" stroke-width="2" stroke-linecap="round"/><path d="M91.70654,201.51578l51.63373,-4.30281l57.7806,-1.22937l53.47779,1.22937l70.07434,4.9175" fill="none" stroke="#e25a5a" stroke-width="1.5" stroke-linecap="round"/><path d="M221.79171,59.62769c0,3.95082 -6.86404,7.15359 -15.33126,7.15359c-8.46722,0 -15.33126,-3.20277 -15.33126,-7.15359c0,-3.95082 6.86404,-7.15359 15.33126,-7.15359c8.46722,0 15.33126,3.20277 15.33126,7.15359z" fill="url(#color-15)" stroke="none" stroke-width="0" stroke-linecap="butt"/><path d="M109.89174,199.68548c0,0 4.93359,-39.1163 6.55151,-51.94415c0.44113,-3.49759 4.83172,-25.7361 15.07532,-41.95692c5.33339,-8.44545 14.38186,-20.22149 24.8069,-28.54547c12.76144,-10.1895 38.36198,-18.10137 38.36198,-18.10137" data-paper-data="{&quot;index&quot;:null}" fill="none" stroke="#e25a5a" stroke-width="2" stroke-linecap="round"/><path d="M184.72727,101.20378c-0.01865,-3.97314 3.33204,-7.91334 6.214,-7.8848c6.46063,0.06397 31.41566,0.31105 31.41566,0.31105l6.33999,13.42585l-0.74588,14.17174l-9.63195,4.80562l0.18642,2.1703l11.68317,1.22877c0,0 3.98693,4.62998 5.93955,6.89754c1.89964,2.20603 5.23157,10.11661 4.98476,12.38729c-0.3427,3.15292 -1.22786,11.29627 -1.22786,11.29627c0,0 -4.91017,5.81947 -6.76551,8.01839c-1.29654,1.53664 -6.08018,3.96197 -8.70935,4.00579c-7.09347,0.11822 -39.34736,0.65579 -39.34736,0.65579c0,0 -0.27969,-59.57275 -0.33563,-71.4896z" fill="none" stroke="url(#color-16)" stroke-width="23.5" stroke-linecap="round"/><path d="M177.21397,180.94989h16.20567" fill="none" stroke="#ff6666" stroke-width="2.5" stroke-linecap="round"/><path d="M197.4371,181.63311h8.36729" fill="none" stroke="#ff6666" stroke-width="2.5" stroke-linecap="round"/><path d="M208.59349,181.63311l8.71593,-0.34864" fill="none" stroke="#ff6666" stroke-width="2.5" stroke-linecap="round"/><path d="M220.44716,180.93584l9.76184,-2.7891" fill="none" stroke="#ff6666" stroke-width="2.5" stroke-linecap="round"/><path d="M233.69537,176.75219l5.5782,-5.22956" fill="none" stroke="#ff6666" stroke-width="2.5" stroke-linecap="round"/><path d="M242.06267,169.08217l4.88092,-7.32138" fill="none" stroke="#ff6666" stroke-width="2.5" stroke-linecap="round"/><path d="M247.64086,157.2285l0.34864,-7.32138" fill="none" stroke="#ff6666" stroke-width="2.5" stroke-linecap="round"/><path d="M245.2004,141.53983l-3.13774,-5.5782" fill="none" stroke="#ff6666" stroke-width="2.5" stroke-linecap="round"/><path d="M238.22766,130.73207l-3.13774,-5.22956" fill="none" stroke="#ff6666" stroke-width="2.5" stroke-linecap="round"/><path d="M235.43856,120.27295l1.04591,-7.67002" fill="none" stroke="#ff6666" stroke-width="2.5" stroke-linecap="round"/><path d="M235.08992,106.32746l-0.69727,-3.83501" fill="none" stroke="#ff6666" stroke-width="2.5" stroke-linecap="round"/><path d="M231.95219,97.26289l-3.13774,-5.5782" fill="none" stroke="#ff6666" stroke-width="2.5" stroke-linecap="round"/><path d="M225.32808,87.50105l-2.7891,-2.44046" fill="none" stroke="#ff6666" stroke-width="2.5" stroke-linecap="round"/><path d="M217.65806,85.06059h-7.32138" fill="none" stroke="#ff6666" stroke-width="2.5" stroke-linecap="round"/><path d="M205.80439,84.71195l-6.97275,-0.34864" fill="none" stroke="#ff6666" stroke-width="2.5" stroke-linecap="round"/><path d="M196.04255,84.71195h-6.97275" fill="none" stroke="#ff6666" stroke-width="2.5" stroke-linecap="round"/><path d="M184.88615,87.50105l-4.88092,4.88092" fill="none" stroke="#ff6666" stroke-width="2.5" stroke-linecap="round"/><path d="M177.56477,95.51971l-1.04591,8.71593" fill="none" stroke="#ff6666" stroke-width="2.5" stroke-linecap="round"/><path d="M175.82159,176.40355v-11.15639" fill="none" stroke="#ff6666" stroke-width="2.5" stroke-linecap="round"/><path d="M175.12431,159.32033l0.69727,-14.64277" fill="none" stroke="#ff6666" stroke-width="2.5" stroke-linecap="round"/><path d="M175.82159,139.09937v-9.76184" fill="none" stroke="#ff6666" stroke-width="2.5" stroke-linecap="round"/><path d="M175.82159,120.62159l0.69727,-11.15639" fill="none" stroke="#ff6666" stroke-width="2.5" stroke-linecap="round"/><path d="M196.97775,162.95198l10.22945,-0.37887" fill="none" stroke="#ff6666" stroke-width="2.5" stroke-linecap="round"/><path d="M212.51136,162.95198h8.33511" fill="none" stroke="#ff6666" stroke-width="2.5" stroke-linecap="round"/><path d="M226.90836,161.05764l4.54642,-3.40982" fill="none" stroke="#ff6666" stroke-width="2.5" stroke-linecap="round"/><path d="M232.21252,151.9648v-8.33511" fill="none" stroke="#ff6666" stroke-width="2.5" stroke-linecap="round"/><path d="M228.42383,140.21988l-3.40982,-3.78868" fill="none" stroke="#ff6666" stroke-width="2.5" stroke-linecap="round"/><path d="M219.70986,136.81006l-7.1985,-1.13661" fill="none" stroke="#ff6666" stroke-width="2.5" stroke-linecap="round"/><path d="M210.23815,129.61156l-1.13661,-7.1985" fill="none" stroke="#ff6666" stroke-width="2.5" stroke-linecap="round"/><path d="M212.89023,120.13985l8.33511,-4.92529" fill="none" stroke="#ff6666" stroke-width="2.5" stroke-linecap="round"/><path d="M219.70986,109.15267l-3.40982,-9.09284" fill="none" stroke="#ff6666" stroke-width="2.5" stroke-linecap="round"/><path d="M211.37475,100.05982l-9.85058,0.37887" fill="none" stroke="#ff6666" stroke-width="2.5" stroke-linecap="round"/><path d="M195.08341,100.81756l-3.03095,3.03095" fill="none" stroke="#ff6666" stroke-width="2.5" stroke-linecap="round"/><path d="M192.05247,111.80475l-0.37887,10.98718" fill="none" stroke="#ff6666" stroke-width="2.5" stroke-linecap="round"/><path d="M191.6736,129.61156v10.22945" fill="none" stroke="#ff6666" stroke-width="2.5" stroke-linecap="round"/><path d="M192.05247,147.03951l-0.37887,10.98718" fill="none" stroke="#ff6666" stroke-width="2.5" stroke-linecap="round"/></g></g></svg>